<svg width="31" height="31" viewBox="0 0 31 31" fill="none" xmlns="http://www.w3.org/2000/svg">
<g clip-path="url(#clip0_79_338)">
<path d="M16.6071 3.87457C16.6071 4.48598 16.1108 4.98225 15.4994 4.98225C14.888 4.98225 14.3917 4.48713 14.3917 3.87457V1.10768C14.3917 0.496267 14.888 0 15.4994 0C16.1108 0 16.6071 0.495116 16.6071 1.10768V3.87572V3.87457Z" fill="white"/>
<path d="M16.6071 29.8935C16.6071 30.5049 16.1108 31.0012 15.4994 31.0012C14.888 31.0012 14.3917 30.506 14.3917 29.8935V27.1254C14.3917 26.514 14.888 26.0178 15.4994 26.0178C16.1108 26.0178 16.6071 26.5129 16.6071 27.1254V29.8935Z" fill="white"/>
<path d="M1.10768 16.6071C0.496267 16.6071 0 16.112 0 15.4994C0 14.8868 0.496267 14.3917 1.10768 14.3917H3.87572C4.48713 14.3917 4.9834 14.8868 4.9834 15.4994C4.9834 16.112 4.48713 16.6071 3.87572 16.6071H1.10768Z" fill="white"/>
<path d="M27.1254 16.6071C26.514 16.6071 26.0177 16.112 26.0177 15.4994C26.0177 14.8868 26.5128 14.3917 27.1254 14.3917H29.8934C30.5048 14.3917 31.0011 14.8868 31.0011 15.4994C31.0011 16.112 30.5048 16.6071 29.8934 16.6071H27.1254Z" fill="white"/>
<path d="M28.7548 11.3739C27.593 6.81651 24.3379 3.74334 19.7126 2.2672C19.6066 2.23381 19.4926 2.21423 19.3764 2.21423C18.7649 2.21423 18.2687 2.70935 18.2687 3.32191C18.2687 3.81588 18.5922 4.23384 19.039 4.37662C22.8733 5.60059 25.6194 8.20168 26.6304 11.9646C26.7743 12.409 27.1865 12.7326 27.6793 12.7326C28.2907 12.7326 28.787 12.2363 28.787 11.6249C28.787 11.5385 28.7743 11.4545 28.7559 11.3727L28.7548 11.3739Z" fill="white"/>
<path d="M2.24527 11.3739C3.40706 6.81651 6.66331 3.74334 11.2886 2.2672C11.3945 2.23381 11.5085 2.21423 11.626 2.21423C12.2374 2.21423 12.7337 2.70935 12.7337 3.32191C12.7337 3.81588 12.4101 4.23384 11.9634 4.37662C8.12909 5.60059 5.38292 8.20168 4.37196 11.9646C4.22803 12.409 3.81582 12.7326 3.32301 12.7326C2.7116 12.7326 2.21533 12.2363 2.21533 11.6249C2.21533 11.5385 2.228 11.4545 2.24642 11.3727L2.24527 11.3739Z" fill="white"/>
<path d="M28.7548 19.6261C27.593 24.1835 24.3379 27.2567 19.7126 28.7328C19.6066 28.7662 19.4926 28.7858 19.3764 28.7858C18.7649 28.7858 18.2687 28.2907 18.2687 27.6781C18.2687 27.1841 18.5922 26.7662 19.039 26.6234C22.8733 25.3994 25.6194 22.7983 26.6304 19.0355C26.7743 18.591 27.1865 18.2675 27.6793 18.2675C28.2907 18.2675 28.787 18.7637 28.787 19.3751C28.787 19.4615 28.7743 19.5455 28.7559 19.6273L28.7548 19.6261Z" fill="white"/>
<path d="M2.24532 19.6261C3.40712 24.1835 6.66222 27.2567 11.2875 28.7328C11.3934 28.7662 11.5074 28.7858 11.6249 28.7858C12.2363 28.7858 12.7326 28.2907 12.7326 27.6781C12.7326 27.1841 12.409 26.7662 11.9623 26.6234C8.12799 25.3994 5.38182 22.7983 4.37087 19.0355C4.22694 18.591 3.81472 18.2675 3.32191 18.2675C2.7105 18.2675 2.21423 18.7637 2.21423 19.3751C2.21423 19.4615 2.2269 19.5455 2.24532 19.6273V19.6261Z" fill="white"/>
<path d="M15.5006 14.3929C13.8701 14.3929 12.7325 13.5178 12.7325 12.7326C12.7325 11.9473 13.869 11.0722 15.5006 11.0722C17.1321 11.0722 18.2686 11.9473 18.2686 12.7326C18.2686 13.344 18.7649 13.8402 19.3763 13.8402C19.9877 13.8402 20.484 13.344 20.484 12.7326C20.484 10.8569 18.8524 9.33468 16.6094 8.95241V8.30415C16.6094 7.69274 16.1131 7.19647 15.5017 7.19647C14.8903 7.19647 14.394 7.69274 14.394 8.30415V8.95241C12.151 9.33468 10.5195 10.8569 10.5195 12.7326C10.5195 14.9053 12.7083 16.6071 15.5017 16.6071C17.1321 16.6071 18.2697 17.4822 18.2697 18.2675C18.2697 19.0528 17.1333 19.9279 15.5017 19.9279C13.8701 19.9279 12.7337 19.0528 12.7337 18.2675C12.7337 17.6561 12.2374 17.1598 11.626 17.1598C11.0146 17.1598 10.5183 17.6561 10.5183 18.2675C10.5183 20.1432 12.1499 21.6654 14.3929 22.0476V22.6959C14.3929 23.3073 14.8891 23.8036 15.5006 23.8036C16.112 23.8036 16.6082 23.3073 16.6082 22.6959V22.0476C18.8512 21.6654 20.4828 20.1432 20.4828 18.2675C20.4828 16.0947 18.2939 14.3929 15.5006 14.3929Z" fill="white"/>
</g>
<defs>
<clipPath id="clip0_79_338">
<rect width="31" height="31" fill="white"/>
</clipPath>
</defs>
</svg>
